<svg xmlns="http://www.w3.org/2000/svg" width="22.443" height="20.572" viewBox="0 0 22.443 20.572"><g transform="translate(0 0)"><path d="M.459,11A.468.468,0,0,0,0,11.469v8.648a.234.234,0,0,0,.234.234H2.452a.467.467,0,0,0,.45-.339L4.971,12.72a.935.935,0,0,0-.58-1.134A10.935,10.935,0,0,0,.459,11Z" transform="translate(0 -1.649)" fill="#aaa"/><path d="M20.881,16.261c-1.87,0-5.611,2.367-7.481,2.367A8.612,8.612,0,0,1,9.426,17.2a29.13,29.13,0,0,0,3.974.468c1.455,0,1.87-.5,1.87-1.169,0-1.636-2.779-1.891-4.186-2.1A8.6,8.6,0,0,0,6.7,12.82a2.254,2.254,0,0,1-.071.4L4.751,19.839c2.127.968,5.791,2.5,7.714,2.5,2.805,0,10.286-3.74,10.286-4.676S21.816,16.261,20.881,16.261Z" transform="translate(-0.308 -1.767)" fill="#aaa"/><path d="M23.193,12.349a.467.467,0,0,0,.459-.468V3.234A.234.234,0,0,0,23.419,3H21.2a.467.467,0,0,0-.45.339l-2.069,7.292a.935.935,0,0,0,.58,1.134,10.935,10.935,0,0,0,3.932.584Z" transform="translate(-1.21 -1.13)" fill="#aaa"/><path d="M1.87,7.078c1.87,0,5.611-2.367,7.481-2.367a8.612,8.612,0,0,1,3.974,1.432,29.13,29.13,0,0,0-3.974-.468c-1.455,0-1.87.5-1.87,1.169,0,1.636,2.779,1.891,4.186,2.1a8.6,8.6,0,0,0,4.384,1.57,2.262,2.262,0,0,1,.072-.4L18,3.5C15.872,2.533,12.209,1,10.286,1,7.481,1,0,4.74,0,5.676s.935,1.4,1.87,1.4Z" transform="translate(0 -1)" fill="#aaa"/></g></svg>