<svg xmlns="http://www.w3.org/2000/svg"  viewBox="0 0 56.274 56.137"><g transform="translate(0 -0.137)"><ellipse cx="7" cy="6.5" rx="7" ry="6.5" transform="translate(21.137 0.137)" fill="#364ea2"/><path d="M174.081,131.651a11.541,11.541,0,1,0-23.081,0V136.6h23.081Z" transform="translate(-134.404 -106.811)" fill="#364ea2"/><path d="M290.633,186.168c-.911,14.257-7.026,17.574-7.356,17.739l-1.5-2.935c.054-.029,3.459-2.078,4.98-10.02a16.713,16.713,0,0,0-15.161,14.724A87.456,87.456,0,0,0,271,215.732v1.649h13.189v-1.649c0-1.587,1.179-2.682,3.437-4.638,3.883-3.362,9.862-8.554,9.862-21.85V181h-1.7a5.462,5.462,0,0,0-5.151,5.168Z" transform="translate(-241.214 -161.106)" fill="#364ea2"/><path d="M9.862,211.093c2.259,1.956,3.437,3.051,3.437,4.638v1.649H26.488v-1.649a87.439,87.439,0,0,0-.593-10.055,16.713,16.713,0,0,0-15.161-14.724c1.521,7.941,4.926,9.99,4.98,10.02l-1.5,2.935c-.329-.165-6.445-3.482-7.356-17.739A5.462,5.462,0,0,0,1.7,181H0v8.243C0,202.539,5.978,207.732,9.862,211.093Z" transform="translate(0 -161.106)" fill="#364ea2"/></g></svg>