<svg xmlns="http://www.w3.org/2000/svg" width="20.058" height="20.058" viewBox="0 0 20.058 20.058"><path d="M7.731,0H1.463A1.464,1.464,0,0,0,0,1.463V5.223A1.464,1.464,0,0,0,1.463,6.686H7.731A1.464,1.464,0,0,0,9.193,5.223V1.463A1.464,1.464,0,0,0,7.731,0Zm0,0" fill="#aaa"/><path d="M7.731,213.332H1.463A1.464,1.464,0,0,0,0,214.795v8.775a1.464,1.464,0,0,0,1.463,1.463H7.731a1.464,1.464,0,0,0,1.463-1.463v-8.775A1.464,1.464,0,0,0,7.731,213.332Zm0,0" transform="translate(0 -204.974)" fill="#aaa"/><path d="M285.063,341.332h-6.268a1.464,1.464,0,0,0-1.463,1.463v3.761a1.464,1.464,0,0,0,1.463,1.463h6.268a1.464,1.464,0,0,0,1.463-1.463v-3.761A1.464,1.464,0,0,0,285.063,341.332Zm0,0" transform="translate(-266.467 -327.96)" fill="#aaa"/><path d="M285.063,0h-6.268a1.464,1.464,0,0,0-1.463,1.463v8.775a1.464,1.464,0,0,0,1.463,1.463h6.268a1.464,1.464,0,0,0,1.463-1.463V1.463A1.464,1.464,0,0,0,285.063,0Zm0,0" transform="translate(-266.467)" fill="#aaa"/></svg>