<svg xmlns="http://www.w3.org/2000/svg"  viewBox="0 0 14.268 17.672"><path d="M178.565,3.483a1.741,1.741,0,1,0-1.742-1.741A1.742,1.742,0,0,0,178.565,3.483Z" transform="translate(-172.173)" fill="#aaa"/><path d="M56.463,204.8a3.849,3.849,0,1,1-5.248-4.586V198.58a5.383,5.383,0,1,0,6.434,7.408l-.608-1.195Z" transform="translate(-47.38 -191.447)" fill="#aaa"/><path d="M191.912,128.5l-2.333-4.586a1.021,1.021,0,0,0-.911-.559H185.68v-.681h2.571a.8.8,0,0,0,.767-.767.767.767,0,0,0-.767-.767H185.68V118.83a1.534,1.534,0,1,0-3.067,0v5.006a1.565,1.565,0,0,0,1.565,1.565h3.863l2.048,4.027a1.022,1.022,0,1,0,1.822-.927Z" transform="translate(-177.755 -113.083)" fill="#aaa"/></svg>