<svg xmlns="http://www.w3.org/2000/svg" width="23.694" height="23.694" viewBox="0 0 23.694 23.694"><path d="M23.169,9.786,21.987,9.5a10.275,10.275,0,0,0-1.31-3.168l.6-1a.694.694,0,0,0-.1-.848L19.21,2.521a.694.694,0,0,0-.848-.1l-1,.6a10.275,10.275,0,0,0-3.168-1.31L13.908.525A.694.694,0,0,0,13.235,0H10.459a.694.694,0,0,0-.673.525L9.5,1.707a10.275,10.275,0,0,0-3.168,1.31l-1-.6a.694.694,0,0,0-.848.1L2.521,4.484a.694.694,0,0,0-.1.848l.6,1A10.275,10.275,0,0,0,1.707,9.5L.525,9.786A.694.694,0,0,0,0,10.459v2.777a.694.694,0,0,0,.525.673l1.182.284a10.275,10.275,0,0,0,1.31,3.168l-.6,1a.694.694,0,0,0,.1.848l1.963,1.963a.693.693,0,0,0,.848.1l1-.6A10.275,10.275,0,0,0,9.5,21.987l.284,1.182a.694.694,0,0,0,.673.525h2.777a.694.694,0,0,0,.673-.525l.284-1.182a10.275,10.275,0,0,0,3.168-1.31l1,.6a.7.7,0,0,0,.848-.1l1.963-1.963a.694.694,0,0,0,.1-.848l-.6-1a10.275,10.275,0,0,0,1.31-3.168l1.182-.284a.694.694,0,0,0,.525-.673V10.459A.694.694,0,0,0,23.169,9.786ZM11.847,18.094a6.247,6.247,0,1,1,6.247-6.247A6.254,6.254,0,0,1,11.847,18.094Z" fill="#aaa"/><g transform="translate(9.765 6.988)"><path d="M213.082,151a2.082,2.082,0,1,0,2.083,2.082A2.085,2.085,0,0,0,213.082,151Z" transform="translate(-211 -151)" fill="#aaa"/></g><g transform="translate(8.376 11.153)"><path d="M187.23,241a3.435,3.435,0,0,1-5.518,0,3.437,3.437,0,0,0-.712,2.082v1.388a.694.694,0,0,0,.694.694h5.553a.694.694,0,0,0,.694-.694v-1.388A3.437,3.437,0,0,0,187.23,241Z" transform="translate(-181 -241)" fill="#aaa"/></g></svg>