<svg xmlns="http://www.w3.org/2000/svg"  viewBox="0 0 16.08 16.08"><path d="M144.871,36.51a.832.832,0,0,0,1.176,0l3.137-3.137a.832.832,0,0,0-1.176-1.176l-1.717,1.717V24.832a.832.832,0,0,0-1.663,0v9.082L142.91,32.2a.832.832,0,0,0-1.176,1.176Z" transform="translate(-137.419 -24)" fill="#aaa"/><path d="M39.248,232a.832.832,0,0,0-.832.832v6.377H25.663v-6.377a.832.832,0,0,0-1.663,0v6.654a1.386,1.386,0,0,0,1.386,1.386H38.694a1.386,1.386,0,0,0,1.386-1.386v-6.654A.832.832,0,0,0,39.248,232Z" transform="translate(-24 -224.792)" fill="#aaa"/></svg>