<svg xmlns="http://www.w3.org/2000/svg" width="22" height="20.196" viewBox="0 0 22 20.196"><g transform="translate(0 0)"><g transform="translate(0 0)"><path d="M.917,4.008H2.9a2.78,2.78,0,0,0,2.6,2.008,2.78,2.78,0,0,0,2.6-2.008H21.083a.961.961,0,0,0,.917-1,.961.961,0,0,0-.917-1H8.09A2.78,2.78,0,0,0,5.493,0,2.78,2.78,0,0,0,2.9,2.008H.917a.961.961,0,0,0-.917,1A.961.961,0,0,0,.917,4.008ZM5.493,2a.969.969,0,0,1,.924,1.008.969.969,0,0,1-.924,1.008.969.969,0,0,1-.924-1.008A.97.97,0,0,1,5.493,2Z" transform="translate(0 0)" fill="#aaa"/><path d="M21.083,34.041H11.771a2.78,2.78,0,0,0-2.6-2.008,2.78,2.78,0,0,0-2.6,2.008H.917a1,1,0,0,0,0,2h5.66a2.78,2.78,0,0,0,2.6,2.008,2.78,2.78,0,0,0,2.6-2.008h9.312a1,1,0,0,0,0-2ZM9.174,36.048A1.012,1.012,0,1,1,10.1,35.04.969.969,0,0,1,9.174,36.048Z" transform="translate(0 -17.852)" fill="#aaa"/><path d="M21.083,18.024H19.1a2.684,2.684,0,0,0-5.195,0H.917a1,1,0,0,0,0,2H13.91a2.684,2.684,0,0,0,5.195,0h1.979a1,1,0,0,0,0-2Zm-4.576,2.008a1.012,1.012,0,1,1,.924-1.008.969.969,0,0,1-.924,1.008Z" transform="translate(0 -8.926)" fill="#aaa"/></g></g></svg>