<svg xmlns="http://www.w3.org/2000/svg" width="20.287" height="20.287" viewBox="0 0 20.287 20.287"><path d="M14.795,0h-9.3A5.5,5.5,0,0,0,0,5.491v9.3a5.5,5.5,0,0,0,5.492,5.491h9.3A5.5,5.5,0,0,0,20.286,14.8v-9.3A5.5,5.5,0,0,0,14.795,0ZM10.143,15.691a5.547,5.547,0,1,1,5.547-5.547A5.553,5.553,0,0,1,10.143,15.691ZM15.822,5.9a1.639,1.639,0,1,1,1.639-1.639A1.641,1.641,0,0,1,15.822,5.9Zm0,0" transform="translate(0.001 0)" fill="#aaa"/><path d="M150.378,146.02a4.358,4.358,0,1,0,4.358,4.358A4.363,4.363,0,0,0,150.378,146.02Zm0,0" transform="translate(-140.234 -140.234)" fill="#aaa"/><path d="M388.442,96.3a.45.45,0,1,0,.45.45A.45.45,0,0,0,388.442,96.3Zm0,0" transform="translate(-372.619 -92.485)" fill="#aaa"/></svg>