<svg xmlns="http://www.w3.org/2000/svg"  viewBox="0 0 55.119 47.175"><g transform="translate(0 -1.761)"><g transform="translate(0 1.761)"><path d="M10.706,17.356a7.231,7.231,0,0,0,7.231-7.237c0-2.493.878-4.776-1.049-6.071-1.155-.787-6.227-1.16-7.725-1.16-1.782,0-4.1,1.453-5.36,2.525-1.568,1.324-.332,2.491-.332,4.7A7.231,7.231,0,0,0,10.706,17.356ZM5.666,9.41a3.892,3.892,0,0,1,2.231.2l2.22-1.081S8.987,10.159,10,9.606a12.565,12.565,0,0,1,6.076-.19,5.477,5.477,0,0,1,.086.871,5.293,5.293,0,1,1-10.585,0A5.381,5.381,0,0,1,5.666,9.41Z" transform="translate(3.778 -0.344)" fill="#ffc107"/><path d="M34.41,10.52A8.719,8.719,0,0,0,34.252,9.3a8.582,8.582,0,0,0-9.069-7.535c-5.613.133-6.838,4.359-7.134,6.931a8.314,8.314,0,0,0-.37,1.981c-7.3,1.275-6.5,8.683-2.039,8.81a8.551,8.551,0,0,1,2.132-6.94,8.391,8.391,0,0,0,16.449.618,11.085,11.085,0,0,1,1.552,6.324C42.8,19.426,39.34,11.4,34.41,10.52Zm-8.354,6.709a6.048,6.048,0,0,1-6.028-5.913c1.2-.435,2.087-2.511,2.087-2.511s.711.244.711,2.588c1.243.433,3.4-3.641,3.4-3.641v3.21c1.369.375,5.687-.122,5.687-.122l.16.135c0,.068.02.138.02.208A6.042,6.042,0,0,1,26.056,17.229Z" transform="translate(15.371 -1.761)" fill="#ffc107"/><path d="M43.187,9.769h-6.52L27.979,20.237,19.571,9.9H10.012L0,20.891l2.1,2.164,7.167-6.116V28.8H10.7v9.017H9.789v1.058h4.162V28.8H15.51V38.876h4.153V37.818h-.911V28.8H20.5V17.162l5.73,5.884,2.342-.578,1.3.325,6.491-7.429.37,2.944L30.7,28.668h6.953v9.02h-.914v1.049H40.9V37.687h0v-9.02h1.554V38.736h4.16V37.687H45.7v-9.02h5.39l-5.311-10.36.291-3.623,5.074,6.8,3.361-.837L46.461,9.769Z" transform="translate(0 8.298)" fill="#ffc107"/></g></g></svg>