<svg xmlns="http://www.w3.org/2000/svg" viewBox="0 0 19.359 14.208"><path d="M210.694,88.51a1.962,1.962,0,1,1,0-2.772A1.967,1.967,0,0,1,210.694,88.51Zm0,0" transform="translate(-199.624 -80.02)" fill="#aaa"/><path d="M292.737,54.211a.933.933,0,0,1-.659-1.594,3.9,3.9,0,0,0,0-5.523.933.933,0,1,1,1.319-1.321,5.767,5.767,0,0,1,0,8.166A.93.93,0,0,1,292.737,54.211Zm0,0" transform="translate(-278.984 -42.751)" fill="#aaa"/><path d="M327.69,14.211a.933.933,0,0,1-.659-1.594,7.78,7.78,0,0,0,0-11.02A.933.933,0,0,1,328.35.276a9.648,9.648,0,0,1,0,13.662.931.931,0,0,1-.659.273Zm0,0" transform="translate(-311.826 -0.003)" fill="#aaa"/><path d="M135.756,54.21a.931.931,0,0,1-.659-.273,5.767,5.767,0,0,1,0-8.166.933.933,0,1,1,1.319,1.321,3.9,3.9,0,0,0,0,5.523.934.934,0,0,1-.659,1.594Zm0,0" transform="translate(-130.15 -42.75)" fill="#aaa"/><path d="M83.061,14.209a.93.93,0,0,1-.659-.273A9.648,9.648,0,0,1,82.4.273.933.933,0,0,1,83.72,1.595a7.781,7.781,0,0,0,0,11.02.933.933,0,0,1-.659,1.594Zm0,0" transform="translate(-79.566 -0.001)" fill="#aaa"/></svg>