<?xml version="1.0" encoding="utf-8"?>
<!-- Generator: Adobe Illustrator 24.0.1, SVG Export Plug-In . SVG Version: 6.00 Build 0)  -->
<svg version="1.1" id="Layer_1" xmlns="http://www.w3.org/2000/svg" xmlns:xlink="http://www.w3.org/1999/xlink" x="0px" y="0px"
	 viewBox="0 0 379.5 386.4" style="enable-background:new 0 0 379.5 386.4;" xml:space="preserve">
<style type="text/css">
	.st0{fill:#AAAAAA;}
</style>
<g id="map" transform="translate(-4.565)">
	<g id="Group_153" transform="translate(47.017 281.818)">
		<g id="Group_152">
			<path id="Path_151" class="st0" d="M285.9,81.9l-152-80.5c-4-2.1-8.8-1.8-12.5,0.7L5.2,82.6c-5.5,3.8-6.8,11.3-3,16.8
				c2.3,3.2,5.9,5.2,9.9,5.2h268.2c6.7,0,12.1-5.4,12.1-12.1C292.3,88,289.9,84,285.9,81.9L285.9,81.9z"/>
		</g>
	</g>
	<g id="Group_155" transform="translate(207.962 170.371)">
		<g id="Group_154">
			<path id="Path_152" class="st0" d="M175.8,170.4L140.1,9.5c-1.5-6.5-7.9-10.6-14.4-9.2c-1.5,0.3-2.9,1-4.2,1.8L5.2,82.6
				c-5.5,3.8-6.8,11.3-3,16.8c1.1,1.6,2.6,2.9,4.3,3.8l152,80.5c1.7,0.9,3.7,1.4,5.7,1.4c2.6,0,5.2-0.9,7.3-2.5
				C175.1,179.7,176.9,175,175.8,170.4z"/>
		</g>
	</g>
	<g id="Group_157" transform="translate(12.278 144.904)">
		<g id="Group_156">
			<path id="Path_153" class="st0" d="M287.4,8.5c-1.6-5-6.3-8.5-11.5-8.5H165.7c-20,36.3-49.7,71-61.9,84.6
				c-13.4,14.9-36.3,16.1-51.1,2.8c-1-0.9-1.9-1.8-2.8-2.8c-4.7-5.2-12-13.6-20.4-24L0.3,192.1c-1.4,6.5,2.7,13,9.2,14.4
				c0.9,0.2,1.7,0.3,2.6,0.3c2.5,0,4.9-0.7,6.9-2.1L282.8,22C287.1,19,289,13.5,287.4,8.5z"/>
		</g>
	</g>
	<g id="Group_159" transform="translate(4.565)">
		<g id="Group_158">
			<path id="Path_154" class="st0" d="M84.5,0C37.9,0.1,0.1,37.9,0,84.5c0,43.4,67.8,120.2,75.5,128.8c4.5,5,12.1,5.4,17,0.9
				c0.3-0.3,0.6-0.6,0.9-0.9c7.7-8.6,75.5-85.4,75.5-128.8C169,37.9,131.2,0.1,84.5,0z M84.5,120.8c-20,0-36.2-16.2-36.2-36.2
				c0-20,16.2-36.2,36.2-36.2c20,0,36.2,16.2,36.2,36.2C120.7,104.5,104.5,120.7,84.5,120.8z"/>
		</g>
	</g>
</g>
</svg>
