<svg xmlns="http://www.w3.org/2000/svg" width="17.833" height="17.418" viewBox="0 0 17.833 17.418"><g transform="translate(0 -3.842)"><path d="M235.077,30.173a.81.81,0,0,0-.717-.126L230,31.355V46.017l4.826-1.448a.811.811,0,0,0,.578-.776V30.824A.811.811,0,0,0,235.077,30.173Z" transform="translate(-217.571 -24.757)" fill="#aaa"/><path d="M132.309,7.892,130,6.506v14.86l3.783,2.27V8.776l-1.473-.884Z" transform="translate(-122.975 -2.52)" fill="#aaa"/><path d="M0,6.066v12.97a.811.811,0,0,0,1.044.776L5.4,18.5V3.842L.578,5.29A.811.811,0,0,0,0,6.066Z" fill="#aaa"/></g></svg>