<svg xmlns="http://www.w3.org/2000/svg" width="21.337" height="23.555" viewBox="0 0 21.337 23.555"><path d="M378.743,50.857l1.478-1.478a.69.69,0,1,0-.976-.976l-1.478,1.478a.69.69,0,1,0,.976.976Z" transform="translate(-361.304 -45.983)" fill="#aaa"/><path d="M427.934,176.733h-1.478a.69.69,0,0,0,0,1.38h1.478a.69.69,0,1,0,0-1.38Z" transform="translate(-407.287 -168.602)" fill="#aaa"/><path d="M281.856,2.858a.69.69,0,0,0,.69-.69V.69a.69.69,0,1,0-1.38,0V2.168A.69.69,0,0,0,281.856,2.858Z" transform="translate(-269.34)" fill="#aaa"/><path d="M24.3,349.949a.69.69,0,0,0,0,.976l2.957,2.957a.69.69,0,0,0,.976,0l1.156-1.156-3.933-3.932Z" transform="translate(-24.1 -332.747)" fill="#aaa"/><path d="M187.713,386.038l-4.846,2.28,3.313,3.313a.69.69,0,0,0,.976,0l2.587-2.587a.69.69,0,0,0,0-.976Z" transform="translate(-175.563 -368.278)" fill="#aaa"/><path d="M81.815,48.4A.69.69,0,0,0,80.7,48.6L74.841,61.054l3.933,3.933L91.23,59.124a.69.69,0,0,0,.194-1.112Z" transform="translate(-72.507 -45.983)" fill="#aaa"/></svg>