<svg xmlns="http://www.w3.org/2000/svg"  viewBox="0 0 66.881 66.88"><g transform="translate(0)"><g transform="translate(0 31.055)"><path d="M.912,240.222a1.394,1.394,0,0,0-.828,1.783l.875,2.408,6.663-6.663Z" transform="translate(-0.001 -237.75)" fill="#0096ff"/></g><g transform="translate(7.218 54.928)"><path d="M55.257,420.513l4.013,11.035a1.381,1.381,0,0,0,.722.786,1.4,1.4,0,0,0,.588.131,1.365,1.365,0,0,0,.482-.086l4.428-1.633Z" transform="translate(-55.257 -420.513)" fill="#0096ff"/></g><g transform="translate(37.199 32.88)"><path d="M314.38,264.35l-4.592-12.626-11.021,11.021,5.462-2.012a1.393,1.393,0,0,1,.964,2.614l-6.939,2.558a1.392,1.392,0,0,1-1.789-.825c0-.008,0-.017,0-.025l-11.679,11.679,28.769-10.6A1.389,1.389,0,0,0,314.38,264.35Z" transform="translate(-284.783 -251.724)" fill="#0096ff"/></g><g transform="translate(0.002 0)"><path d="M66.489,22.707,44.2.414a1.394,1.394,0,0,0-1.97,0l-41.8,41.8a1.394,1.394,0,0,0,0,1.97L22.72,66.476a1.379,1.379,0,0,0,.984.41,1.4,1.4,0,0,0,.986-.407l41.8-41.8A1.4,1.4,0,0,0,66.489,22.707ZM16.33,38.613l-5.573,5.573a1.394,1.394,0,1,1-1.973-1.97l5.573-5.573a1.394,1.394,0,0,1,1.973,1.97Zm24.062,1.769a5.26,5.26,0,0,1-3.818,1.46,11.513,11.513,0,0,1-7.75-3.7,12.766,12.766,0,0,1-3.48-5.93,5.822,5.822,0,0,1,1.24-5.637,5.8,5.8,0,0,1,5.637-1.24,12.743,12.743,0,0,1,5.93,3.48C42.022,32.683,43.009,37.765,40.392,40.382Zm17.737-15.7-5.573,5.573a1.394,1.394,0,0,1-1.973-1.97l5.573-5.573a1.394,1.394,0,0,1,1.973,1.97Z" transform="translate(-0.019 -0.006)" fill="#0096ff"/></g></g></svg>