<svg xmlns="http://www.w3.org/2000/svg" viewBox="0 0 54.586 54.586"><g transform="translate(-0.001 0)"><path d="M396.426,268.344h6.4V283.66h-6.4Zm0,0" transform="translate(-354.161 -239.735)" fill="#9adb62"/><path d="M282.809,268.344h6.4V283.66h-6.4Zm0,0" transform="translate(-252.657 -239.735)" fill="#9adb62"/><path d="M169.191,268.344h6.4V283.66h-6.4Zm0,0" transform="translate(-151.152 -239.735)" fill="#9adb62"/><path d="M55.578,268.344h6.4V283.66h-6.4Zm0,0" transform="translate(-49.652 -239.735)" fill="#9adb62"/><path d="M82.578,209.943v-1.6h-47v1.6a1.6,1.6,0,0,0,1.6,1.6h43.8A1.6,1.6,0,0,0,82.578,209.943Zm0,0" transform="translate(-31.784 -186.132)" fill="#9adb62"/><path d="M53,442H1.614a1.6,1.6,0,0,0-1.6,1.6v4.265a1.6,1.6,0,0,0,1.6,1.6H53a1.6,1.6,0,0,0,1.6-1.6V443.6A1.6,1.6,0,0,0,53,442Zm0,0" transform="translate(-0.012 -394.877)" fill="#9adb62"/><path d="M1.6,19.014H52.988a1.6,1.6,0,0,0,.838-2.961L28.132.237a1.6,1.6,0,0,0-1.677,0L.762,16.053A1.6,1.6,0,0,0,1.6,19.014ZM26.207,9.406h2.174a1.6,1.6,0,0,1,0,3.2H26.207a1.6,1.6,0,0,1,0-3.2Zm0,0" fill="#9adb62"/></g></svg>