<svg id="presentation" xmlns="http://www.w3.org/2000/svg" width="17.444" height="17.444" viewBox="0 0 17.444 17.444">
  <path id="Path_43" data-name="Path 43" d="M16.933,1.022H11.082l-.37-.74A.511.511,0,0,0,10.255,0H7.189a.511.511,0,0,0-.457.282l-.37.74H.511A.511.511,0,0,0,0,1.533V2.555a.511.511,0,0,0,.511.511H16.933a.511.511,0,0,0,.511-.511V1.533A.511.511,0,0,0,16.933,1.022Z" fill="#aaa"/>
  <path id="Path_44" data-name="Path 44" d="M16.933,128.177h-.511V120H1.022v8.177H.511a.511.511,0,1,0,0,1.022h7.7v1.39l-.872.872a.511.511,0,0,0-.15.361v1.022a.511.511,0,0,0,.511.511H9.744a.511.511,0,0,0,.511-.511v-1.022a.511.511,0,0,0-.15-.361l-.872-.872V129.2h7.7a.511.511,0,1,0,0-1.022Zm-7.189-1.022H3.611a.511.511,0,0,1,0-1.022h.511V124.6a.511.511,0,1,1,1.022,0v1.533H6.167v-2.555a.511.511,0,1,1,1.022,0v2.555H8.211v-3.577a.511.511,0,1,1,1.022,0v3.577h.511a.511.511,0,0,1,0,1.022Zm4.088,0H11.788a.511.511,0,0,1,0-1.022h2.044a.511.511,0,1,1,0,1.022Zm0-2.044H11.788a.511.511,0,1,1,0-1.022h2.044a.511.511,0,1,1,0,1.022Zm0-2.044H11.788a.511.511,0,0,1,0-1.022h2.044a.511.511,0,1,1,0,1.022Z" transform="translate(0 -115.912)" fill="#aaa"/>
</svg>
