<?xml version="1.0" encoding="utf-8"?>
<!-- Generator: Adobe Illustrator 24.0.1, SVG Export Plug-In . SVG Version: 6.00 Build 0)  -->
<svg version="1.1" id="Layer_1" xmlns="http://www.w3.org/2000/svg" xmlns:xlink="http://www.w3.org/1999/xlink" x="0px" y="0px"
	 viewBox="0 0 461.2 420.2" style="enable-background:new 0 0 461.2 420.2;" xml:space="preserve">
<style type="text/css">
	.st0{fill:#AAAAAA;}
</style>
<g id="siren-light" transform="translate(0 -21.963)">
	<path id="Path_155" class="st0" d="M230.6,97.7c8.1,0,14.7-6.6,14.7-14.7c0,0,0,0,0,0V36.7c0-8.1-6.6-14.7-14.7-14.7
		s-14.7,6.6-14.7,14.7V83C215.9,91.1,222.5,97.7,230.6,97.7C230.6,97.7,230.6,97.7,230.6,97.7z"/>
	<path id="Path_156" class="st0" d="M108.1,132.9c5.3,6.2,14.6,7,20.8,1.7c6.2-5.2,7-14.4,1.8-20.7L101,78.5
		c-5.3-6.2-14.6-7-20.8-1.7c-6.2,5.2-7,14.4-1.8,20.7L108.1,132.9z"/>
	<path id="Path_157" class="st0" d="M60.3,240.6c8.1,0,14.7-6.6,14.7-14.8c0-7.1-5.1-13.2-12.2-14.5l-45.6-8.1
		c-8-1.4-15.7,3.9-17.1,12c-1.4,8,3.9,15.7,12,17.1l45.6,8.1C58.6,240.6,59.5,240.6,60.3,240.6z"/>
	<path id="Path_158" class="st0" d="M443.9,203.4l-45.6,8c-8,1.4-13.4,9.1-11.9,17.1c1.2,7,7.3,12.2,14.5,12.2
		c0.9,0,1.7-0.1,2.6-0.2l45.6-8c8-1.4,13.4-9.1,12-17.1C459.6,207.3,451.9,201.9,443.9,203.4L443.9,203.4z"/>
	<path id="Path_159" class="st0" d="M341.7,138.2c4.4,0,8.5-1.9,11.3-5.3l29.7-35.4c5.2-6.2,4.4-15.5-1.8-20.8
		c-6.2-5.2-15.5-4.4-20.8,1.8L330.5,114c-5.2,6.2-4.4,15.5,1.8,20.8C334.9,137,338.3,138.2,341.7,138.2z"/>
	<rect id="Rectangle_94" x="37.5" y="371.3" class="st0" width="386.2" height="70.9"/>
	<path id="Path_160" class="st0" d="M230.6,117.1c-76.3,0-138.1,61.8-138.1,138.1c0,0,0,0,0,0v94.3h276.3v-94.3
		C368.8,178.9,306.9,117.1,230.6,117.1C230.6,117.1,230.6,117.1,230.6,117.1z M121.9,320.1v-64.8c0-57.1,44.4-104,100.5-108.3
		c-33.3,26.1-52.8,66-52.8,108.3v64.8H121.9L121.9,320.1z"/>
</g>
</svg>
