<svg xmlns="http://www.w3.org/2000/svg" width="24.969" height="20.287" viewBox="0 0 24.969 20.287"><g transform="translate(0 0)"><path d="M24.969,50.4a10.672,10.672,0,0,1-2.949.808,5.09,5.09,0,0,0,2.252-2.829,10.23,10.23,0,0,1-3.246,1.239,5.118,5.118,0,0,0-8.855,3.5,5.271,5.271,0,0,0,.119,1.167A14.489,14.489,0,0,1,1.738,48.933a5.12,5.12,0,0,0,1.573,6.841A5.055,5.055,0,0,1,1,55.144V55.2a5.142,5.142,0,0,0,4.1,5.03,5.109,5.109,0,0,1-1.342.169,4.526,4.526,0,0,1-.969-.087,5.168,5.168,0,0,0,4.783,3.566A10.285,10.285,0,0,1,1.225,66.06,9.588,9.588,0,0,1,0,65.99a14.411,14.411,0,0,0,7.853,2.3A14.469,14.469,0,0,0,22.422,53.721c0-.226-.008-.445-.019-.662A10.212,10.212,0,0,0,24.969,50.4Z" transform="translate(0 -48)" fill="#aaa"/></g></svg>