<svg xmlns="http://www.w3.org/2000/svg" width="32.844" height="28.472" viewBox="0 0 32.844 28.472"><g transform="translate(-4147.125 -1433)"><path d="M350.523,140a11.2,11.2,0,1,0,11.2,11.2,11.208,11.208,0,0,0-11.2-11.2m8.734,4.949a15.689,15.689,0,0,1-1.8,1.044,11.627,11.627,0,0,0-1.337-2.093,10.332,10.332,0,0,0,1.3-.933,10.755,10.755,0,0,1,1.834,1.983m-4.709-3.715a10.691,10.691,0,0,1,2.508,1.439,10.23,10.23,0,0,1-1.234.872,11.587,11.587,0,0,0-1.843-1.7,5.7,5.7,0,0,0,.569-.607m.867,2.542a10.49,10.49,0,0,1-1.886.788,16.82,16.82,0,0,0-.933-1.826,5.143,5.143,0,0,0,1.02-.6,11.338,11.338,0,0,1,1.8,1.636m-1.324-2.712a4.794,4.794,0,0,1-.5.5,11.717,11.717,0,0,0-1.876-1.039,10.532,10.532,0,0,1,2.372.535m-.877.8a4.538,4.538,0,0,1-.86.479,17.346,17.346,0,0,0-1.079-1.5,11.232,11.232,0,0,1,1.939,1.025m-2.459-.945a16.332,16.332,0,0,1,1.156,1.582,4.584,4.584,0,0,1-1.156.2Zm0,2.249a5.283,5.283,0,0,0,1.408-.261,15.488,15.488,0,0,1,.918,1.781,10.193,10.193,0,0,1-2.326.321Zm-.467-2.231v1.767a4.57,4.57,0,0,1-1.14-.2,16.828,16.828,0,0,1,1.14-1.564m-1.58,1.407a4.543,4.543,0,0,1-.858-.48,10.971,10.971,0,0,1,1.93-1.02,16.425,16.425,0,0,0-1.072,1.5m.647-1.82a11.789,11.789,0,0,0-1.891,1.041,5.189,5.189,0,0,1-.5-.506,10.537,10.537,0,0,1,2.386-.535m7.668,19.218a2.3,2.3,0,0,1-1.44-2.366c.081-.424.372-.24.556-.24a4.327,4.327,0,0,0,3.277-1.585,4.969,4.969,0,0,0-.319-6.819c-2.369-2.281-4.888-1.882-6.513.168a2.477,2.477,0,0,1-1.849.7c-1.041-.039-.386.781-.386.951s-.157.291-.249.265c-.354-.1-.212.423-.212.581a.243.243,0,0,1-.224.239c-.438,0-.317.4-.3.5a.384.384,0,0,1-.172.37.96.96,0,0,0-.3.689c0,.474.436.806,1.165,1.347a1.739,1.739,0,0,1,.831,1.427,4.388,4.388,0,0,0,.214,1.362.927.927,0,0,1-.835,1.387,14.2,14.2,0,0,0-3.593,1.1,4.315,4.315,0,0,1-2.323.156,10.506,10.506,0,0,1-1.1-.89,1.712,1.712,0,0,1,.357-1.382,1.894,1.894,0,0,0,1.36.4,16.213,16.213,0,0,0,2.26-.329.613.613,0,0,1,.488,0,1.273,1.273,0,0,0,1.876-.925c.357-1.229-.488-.885-.594-.834s-.252.041-.2-.064c.156-.313-.079-.281-.212-.292a1.566,1.566,0,0,0-.938.464.332.332,0,0,1-.345.092c-.454-.228-1.812.1-2.232-.635a24.731,24.731,0,0,0-.543-3.7.514.514,0,0,1,.053-.487c.345-.52,1.3.037,1.811.025a.915.915,0,0,0,.885-.482c.163-.2.283-.089.37-.146.112-.072.006-.217.045-.3s.088-.041.192-.132-.014-.291.039-.372c.152-.23.569-.044.319-.646a.978.978,0,0,1,.238-.925c.3-.387,1.455-2.012-.582-3.7-1.944-1.61-3.912-1.479-5.181-.107s-.634,3.385-.5,3.913a1.116,1.116,0,0,1-.686,1.217,9.772,9.772,0,0,0-1.739,1.214,10.686,10.686,0,0,1,6.727-9.723,5.443,5.443,0,0,0,.566.608c-.447.325-1.422,1.2-1.422,1.2s.133.02.257.049c.086.022.268.076.268.076s.859-.732,1.263-1.022a5.037,5.037,0,0,0,1.022.6c-.2.333-.686,1.251-.686,1.251s.113.069.217.136a1.471,1.471,0,0,1,.163.126s.535-1.006.737-1.342a5.158,5.158,0,0,0,1.389.258v1.845c-.262-.009-.939-.037-1.212-.063l-.172-.018.1.142a2.951,2.951,0,0,1,.179.31l.019.037.045.006c.2.015.815.037,1.046.043v3.356h.467v-.769c.681-.032,1.25-.079,1.936-.139l.031,0,.6-.534-.33.029q-.966.125-1.94.172l-.3.016v-2.128a10.882,10.882,0,0,0,2.511-.353c.224.554.649,1.9.649,1.9l.439-.136s-.425-1.335-.648-1.891a10.719,10.719,0,0,0,2.011-.853,11.11,11.11,0,0,1,1.324,2.055c-.331.156-.933.369-.931.369a4.87,4.87,0,0,1,.848.167l.28-.122c.044.1.126.292.126.292l.6.266L357.9,147s-.2-.476-.247-.587a16.4,16.4,0,0,0,1.868-1.081,10.731,10.731,0,0,1-2.495,14.416m-18.705-16.768-.174.156c-.658.58-2.155,2.114-1.928,3.8,0,.007.025.12.025.12l.074.333.209-.192a6.926,6.926,0,0,0,1.889-3.909l.079-.463-.175.156Zm-3.047,2.91-.075.2a7.717,7.717,0,0,0-.4,1.657,5.066,5.066,0,0,0,.857,3.859s.106.14.106.14l.112.141.142-.715a13.965,13.965,0,0,0-.514-5.085l-.158-.4Zm-1.112,4.547-.013.209c-.082,1.131-.023,3.924,2.237,5.406l.269.173-.012-.319a14.19,14.19,0,0,0-2.2-5.355l-.262-.321-.016.207Zm.389,5,.039.191a7.084,7.084,0,0,0,4.2,4.956l.321.106-.117-.317a14.576,14.576,0,0,0-4.157-4.918l-.328-.209Zm4.719-10.037-.185.111c-1.748,1.07-2.568,2.363-2.506,3.958l.016.366.254-.211a10.475,10.475,0,0,0,2.48-3.921l.128-.414-.186.112Zm-1.03,3.5-.131.126a5.35,5.35,0,0,0-1.771,3.875,3.648,3.648,0,0,0,.2.937l.1.3.186-.261a10.887,10.887,0,0,0,1.561-4.743l-.014-.363Zm.076,3.31-.1.148a5.65,5.65,0,0,0-1.08,3.224,4,4,0,0,0,.72,2.161l.152.227.129-.241a11.54,11.54,0,0,0,.528-4.042,5.305,5.305,0,0,0-.156-1.286l-.1-.335-.1.144Zm.849,3.541-.047.154a6.281,6.281,0,0,0-.3,2.046,4.019,4.019,0,0,0,1.95,3.441l.211.135.047-.285c0-.007.017-.228.017-.228a13.711,13.711,0,0,0-1.631-5.158l-.194-.256Zm-2.466,4.7.09.151c.942,1.578,2.541,3.617,5.531,3.094l.25-.042-.142-.211c-.559-.831-4.189-2.879-5.471-3.089l-.349-.057Zm4.422,4.01-.468.128.451.183a9.25,9.25,0,0,0,5.664.544,3.069,3.069,0,0,0,1.221-.837c2.433.252,4.71,2.275,6.037,3.926l.072.084.1-.033a1.537,1.537,0,0,0,.476-.334l.093-.1-.084-.111a11.924,11.924,0,0,0-3.649-2.98c-1.95-.954-5.4-1.695-9.913-.47" transform="translate(3813 1293)" fill="#0096ff"/><path d="M354.01,164.492l.026.16c.285,1.791,1.013,4.142,4.037,3.882l.195-.017-.049-.188c-.206-.815-2.976-3.182-3.943-3.847l-.29-.151Zm21.382-16.57.081.463a6.931,6.931,0,0,0,1.89,3.909l.21.192.072-.333s.023-.112.023-.12c.231-1.684-1.268-3.218-1.923-3.8l-.177-.156Zm3.15,2.864-.16.4a13.966,13.966,0,0,0-.515,5.085l.145.715.111-.141.107-.14a5.058,5.058,0,0,0,.853-3.859,7.624,7.624,0,0,0-.393-1.657l-.075-.2Zm1.171,4.543-.263.321a14.161,14.161,0,0,0-2.2,5.355l-.012.319.266-.173c2.26-1.482,2.32-4.274,2.239-5.406l-.015-.209Zm-.334,5.014-.328.209a14.6,14.6,0,0,0-4.158,4.918l-.116.317.321-.106a7.088,7.088,0,0,0,4.2-4.956l.04-.191.04-.191Zm-4.856-10.012.121.416a10.433,10.433,0,0,0,2.4,3.97l.252.216.021-.364c.095-1.594-.7-2.9-2.426-4.006l-.185-.117Zm.994,3.537-.015.363a10.9,10.9,0,0,0,1.561,4.743l.188.261.1-.3a3.717,3.717,0,0,0,.2-.937,5.348,5.348,0,0,0-1.771-3.875l-.132-.126Zm-.042,3.29-.1.335a5.326,5.326,0,0,0-.156,1.286,11.563,11.563,0,0,0,.527,4.042l.128.241.154-.227a3.993,3.993,0,0,0,.718-2.161,5.631,5.631,0,0,0-1.078-3.225l-.1-.148Zm-.8,3.532-.193.256a13.674,13.674,0,0,0-1.632,5.158s.017.221.019.228l.045.285.213-.135a4.021,4.021,0,0,0,1.949-3.441,6.244,6.244,0,0,0-.305-2.046l-.049-.154-.047-.153Zm2.605,4.695-.35.057c-1.283.21-4.911,2.258-5.471,3.089l-.141.211.25.042c2.992.523,4.589-1.516,5.531-3.093l.09-.152Zm-14.426,4.634a11.916,11.916,0,0,0-3.648,2.98l-.085.111.095.1a1.5,1.5,0,0,0,.477.334l.1.033.072-.083c1.325-1.651,3.6-3.675,6.036-3.926a3.078,3.078,0,0,0,1.221.837,9.255,9.255,0,0,0,5.665-.544l.45-.183-.469-.128c-4.517-1.226-7.963-.485-9.914.469m9.838-5.687-.289.151c-.971.665-3.741,3.032-3.946,3.847l-.047.188.193.017c3.024.259,3.753-2.091,4.037-3.882l.026-.16Z" transform="translate(3800.208 1287.897)" fill="#0096ff"/></g></svg>